<svg width="478" height="322" fill="none" xmlns="http://www.w3.org/2000/svg"><path fill-rule="evenodd" clip-rule="evenodd" d="M133.36.566c-4.928 1.067-11.909 4.722-14.882 7.791-3.322 3.43-5.503 8.233-5.503 12.119 0 3.615 3.154 6.794 7.819 7.88 5.94 1.382 11.973-.477 17.253-5.316 4.924-4.514 8.69-10.302 9.138-14.048.468-3.916-1.879-7.26-5.933-8.452-2.476-.728-4.44-.721-7.892.026zm-4.616 47.594c-19.233 1.564-40.878 7.488-62.077 16.988-27.24 12.208-45.047 24.194-58.91 39.654C2.997 110.109 0 114.962 0 117.361c0 3.843 10.253 1.579 21.915-4.839 3.207-1.765 7.267-4.204 9.023-5.42 6.432-4.453 8.078-5.506 12.775-8.171 7.622-4.324 15.198-8.07 26.348-13.023a19802.13 19802.13 0 0011.576-5.147c3.864-1.725 18.547-7.409 21.757-8.422 2.086-.658 5.168-1.423 6.848-1.7 2.712-.447 3.167-.431 4.055.144 3.008 1.952 3.272 11.653 1.067 39.211-.832 10.384-.892 10.968-1.598 15.448l-.442 2.803-3.269 2.369a780.876 780.876 0 01-8.763 6.207c-5.393 3.765-12.18 9.118-13.573 10.704-1 1.138-1.89 3.281-1.89 4.547 0 1.576 1.54 3.57 3.593 4.655 1.49.787 2.244.925 4.42.811 2.84-.15 6.313-1.619 14.403-6.092 4.29-2.372 5.129-2.573 5.129-1.229 0 1.631-1.22 10.7-1.838 13.666-1.286 6.163-6.719 20.497-8.212 21.664-.291.227-3.403 1.67-6.916 3.206-7.18 3.14-19.527 8.691-24.351 10.949-4.487 2.1-8.208 3.795-15.57 7.094-11.42 5.116-25.567 13.009-27.876 15.552-1.068 1.177-.289 2.303 2.462 3.556 1.896.864 3.034 1.066 7.051 1.253 5.782.269 12.983-.401 16.68-1.553 5.493-1.713 14.026-5.846 37.31-18.072 7.447-3.91 12.146-6.152 12.975-6.189l1.299-.058.126 2.173c.07 1.196-.156 5.019-.501 8.497-.536 5.397-1.734 21.029-3.406 44.46-.225 3.152-.719 9.643-1.097 14.425-.491 6.218-.688 13.196-.69 24.502-.003 15.178.033 15.934.892 18.97 1.865 6.587 5.655 9.125 10.303 6.898 2.146-1.029 4.298-4.097 5.113-7.293 1.121-4.39 1.396-10.946 1.672-39.916.198-20.724.133-32.522-.232-41.891-.642-16.515-.122-23.089 2.455-31.023.984-3.031 3.485-8.109 5.243-10.647 2.436-3.517 7.958-8.509 14.717-13.307 9.577-6.797 18.203-13.199 22.481-16.683 4.864-3.961 13.783-12.463 13.783-13.138 0-.169.45-.836 1-1.483.55-.647 1.654-2.484 2.453-4.081 1.435-2.871 1.447-2.932.97-5.225-.808-3.889-3.335-6.936-8.584-10.349-2.86-1.86-10.195-5.459-15.001-7.359-1.646-.651-3.057-1.245-3.134-1.321-.077-.075.3-.727.838-1.447 2.258-3.026 10.152-18.598 12.084-23.837.401-1.087.873-2.166 1.048-2.398.854-1.13 1.933-7.317 1.936-11.094.007-10.298-3.832-19.428-10.28-24.447-5.56-4.328-11.363-6.067-21.055-6.309-3.513-.087-8.363.002-10.778.198zm19.341 21.906c3.788 2.367 7.214 10.08 7.199 16.208-.022 8.89-5.119 18.309-13.652 25.23-1.889 1.532-9.105 5.005-10.406 5.009-1.095.003-1.269-1.047-.745-4.516a424.03 424.03 0 001.082-7.931c1.46-11.524 4-24.404 5.456-27.664 1.268-2.838 4.221-6.493 5.463-6.762a20.037 20.037 0 001.432-.355c1.173-.388 2.784-.086 4.171.781zm117.834 11.316c-3.663 1.097-6.431 3.982-9.41 9.801-3.844 7.51-7.877 23.373-9.604 37.78-.345 2.881-.783 11.734-.998 20.155-.21 8.26-.578 16.174-.816 17.587-.95 5.618-6.29 14.03-10.456 16.474-4.986 2.923-6.577 2.559-7.843-1.796-1.3-4.475-1.668-9.61-1.776-24.764-.057-8.047-.234-14.84-.393-15.096-.436-.697-10.887-.162-16.796.86-5.522.956-6.886 1.345-10.964 3.136-11.297 4.958-18.249 12.433-22.83 24.545-1.25 3.307-3.604 13.928-3.849 17.373-.584 8.179 3.502 16.321 9.723 19.375 1.963.963 2.833 1.147 5.524 1.167 6.689.05 12.407-2.837 19.125-9.657 2.356-2.392 4.444-4.348 4.641-4.348.197 0 .57.4.83.889 1.05 1.978 5.44 7.714 7.132 9.321 2.263 2.149 4.904 3.503 7.494 3.843 1.809.238 2.283.119 4.841-1.211 3.789-1.972 7.401-5.502 12.641-12.359 2.372-3.104 4.451-5.504 4.619-5.336.169.169.877 1.997 1.574 4.062 1.626 4.821 2.685 6.859 4.791 9.223 2.306 2.588 5.386 3.99 8.14 3.704 5.461-.567 9.996-3.4 18.32-11.445 3.542-3.423 6.472-6.224 6.511-6.224.038 0 .542 1.222 1.119 2.716 3.032 7.856 8.028 12.746 14.774 14.462 3.792.965 6.085.75 14.763-1.382 4.089-1.005 15.233-1.063 26.97-.142 6.821.536 8.748.562 11.577.154 4.255-.614 8.956-2.055 12.575-3.855 7.008-3.488 13.772-10.727 13.772-14.741 0-1.763-.73-2.623-2.507-2.952-2.626-.486-5.726.618-11.864 4.225-3.317 1.949-4.192 2.28-6.986 2.642-3.56.461-12.202-.201-12.452-.954-.077-.231.736-.811 1.805-1.29 4.86-2.175 14.999-9.042 19.459-13.18 2.437-2.262 6.453-7.534 7.592-9.966.515-1.101 1.248-3.312 1.63-4.914.658-2.764.658-3.047.003-5.521-2.652-10.01-9.225-14.458-19.41-13.139-3.847.498-9.309 2.217-13.116 4.126-4.169 2.091-10.936 6.831-13 9.104-2.429 2.676-6.872 10.774-8.453 15.408-1.072 3.143-2.46 8.703-3.747 15.016-.661 3.241-1.397 6.087-1.635 6.323-.239.236-1.819.424-3.516.419-2.831-.009-3.23-.115-4.87-1.286-2.637-1.881-3.498-3.383-4.022-7.016-.475-3.288-.307-11.463.428-20.933l1.026-13.239c.346-4.456.893-10.681 1.215-13.832.322-3.152.69-8.398.817-11.659.201-5.123.116-6.484-.627-10.025-1.654-7.892-4.079-10.732-9.677-11.332-1.708-.183-2.375-.072-3.398.565-2.864 1.784-5.908 11.261-7.695 23.954-.699 4.97-2.823 26.564-3.59 36.508-.319 4.134-.67 6.233-1.289 7.706-1.185 2.818-4.595 6.889-10.442 12.462-4.189 3.993-5.238 4.369-6.664 2.386-2.234-3.106-2.988-11.364-2.627-28.773.346-16.668.38-16.9 7.197-48.39 2.675-12.357 3.347-19.352 2.218-23.083-.987-3.261-3.965-4.699-7.524-3.631zM414.974 98.98c-16.098 1.168-31.176 4.327-52.895 11.08-6.383 1.985-16.83 6.073-20.559 8.044-10.391 5.494-17.885 11.384-20.2 15.877-.672 1.304-.731 1.769-.364 2.871.53 1.588 1.42 1.881 4.157 1.368 5.441-1.019 8.022-1.96 24.591-8.967 14.059-5.946 17.789-7.045 22.759-6.708 3.595.245 7.333 1.695 8.925 3.465 3.074 3.415 3.189 4.384 3.816 31.999.234 10.325.517 19.964.628 21.419.567 7.439 3.134 12.919 8.355 17.833 3.462 3.258 8.879 5.406 13.636 5.406 4.769 0 13.05-2.817 21.015-7.15 2.475-1.346 5.308-2.881 6.296-3.412 10.006-5.375 16.363-9.224 18.148-10.989 4.113-4.065 4.647-9.483 1.294-13.128-.934-1.014-3.67-1.207-6.468-.456-1.716.461-6.938 2.986-11.776 5.694-17.965 10.056-21.693 11.587-24.966 10.251-2.253-.92-3.271-1.98-4.826-5.027-1.873-3.669-3.162-8.711-4.208-16.464-.757-5.606-.887-8.447-.907-19.785-.03-16.906.282-18.451 4.253-21.038 5.732-3.736 15.215-5.153 39.037-5.834 14.356-.411 18.85-.94 25.372-2.988 5.38-1.689 8.414-4.613 7.845-7.561-.418-2.165-4.978-3.833-13.973-5.11-3.829-.543-8.494-.678-25.831-.749-11.637-.047-22.056-.02-23.154.059zm-267.925 34.626c4.221 2.213 8.306 7.04 9.594 11.335.84 2.799.815 3.355-.239 5.445-1.547 3.067-10.307 10.734-15.48 13.549-3.782 2.058-9.556 4.307-11.862 4.62l-1.828.247.281-1.543c.438-2.418 3.325-12.258 4.684-15.968 1.573-4.295 5.05-11.382 7.059-14.391 1.434-2.146 4.074-4.579 4.97-4.579.205 0 1.474.578 2.821 1.285zm212.246 23.223c3.159 1.595 3.565 4.195 1.337 8.554-1.662 3.253-4.01 5.629-8.638 8.744-6.508 4.379-12.973 7.199-16.504 7.199-1.112 0-1.355-.149-1.355-.832 0-.76 1.233-5.148 2.629-9.35 2.448-7.376 7.537-12.179 15.734-14.853 1.582-.516 5.292-.222 6.797.538zm-154.526 2.679c1.436 1.056 3.077 3.539 3.638 5.508.577 2.022.112 4.226-1.621 7.683-1.719 3.431-6.332 8.749-10.224 11.789-.417.326-1.809 1.475-3.093 2.554-2.225 1.869-2.362 1.926-2.891 1.209-.306-.414-.556-1.163-.556-1.665s-.29-2.557-.646-4.568c-.454-2.577-.583-4.942-.436-8.013.42-8.759 2.767-12.896 8.459-14.912 2.463-.872 5.879-.68 7.37.415zm147.929 53.447c-7.626 1.537-13.234 9.445-10.796 15.223.32.758 2.435 3.197 4.701 5.421 5.055 4.962 5.696 6.128 5.696 10.366 0 2.722-.165 3.484-1.185 5.476-2.227 4.352-5.977 6.578-11.082 6.578-1.953 0-2.503-.161-3.32-.97-1.957-1.937-1.128-5.221 2.068-8.195 1.201-1.117 4.298-2.668 5.359-2.682.342-.005.97-.262 1.397-.57.759-.55.755-.582-.193-1.581-1.889-1.99-6.664-.902-10.363 2.361-1.778 1.568-3.349 5.056-3.372 7.483-.035 3.746 1.99 5.897 6.181 6.565 5.458.871 10.939-.77 14.935-4.469 3.351-3.104 4.925-6.276 5.029-10.139.108-3.988-1.1-6.177-6.261-11.336-5.412-5.409-5.877-6.814-3.689-11.151.963-1.909 3.145-3.624 5.63-4.426 2.145-.693 2.534-.213 1.93 2.377-.258 1.109-.469 3.162-.469 4.563 0 2.315.088 2.587.972 2.986 1.365.615 2.112.211 2.056-1.113-.057-1.354 1.314-5.61 2.571-7.98.714-1.349.831-1.948.539-2.767-.345-.963-.523-1.034-2.293-.908-1.589.114-2.02-.004-2.506-.691-.624-.882-1.015-.929-3.535-.421zm69.425.657c-1.285 1.372-3.733 6.509-5.144 10.791-.608 1.847-1.261 3.526-1.45 3.729-.209.224-.711.03-1.274-.494-2.275-2.115-7.941-.409-10.527 3.171-3.848 5.325-5.841 12.89-4.467 16.951.974 2.879 3.493 4.181 5.784 2.991 1.416-.735 3.614-3.017 5.3-5.501 1.828-2.693 2.433-2.504 2.433.758 0 3.108.691 7.428 1.411 8.834.281.547 1.02 1.499 1.642 2.115 1.032 1.021 1.331 1.105 3.415.956 2.516-.181 3.408-.751 4.962-3.171 1.926-3.001.48-3.684-2.331-1.099-2.814 2.588-3.661 2.118-4.321-2.397-.439-3-.291-6.476.47-11.035 1.394-8.35 1.612-9.164 5.725-21.341 1.558-4.613 1.7-5.73.771-6.083-1.043-.396-1.357-.288-2.399.825zm9.418 3.97c-.961.37-1.541 1.368-1.817 3.126-.412 2.622.547 4.217 2.039 3.39.752-.417 2.569-4.032 2.571-5.115.002-1.245-1.387-1.942-2.793-1.401zm-61.078 3.774c-.549.275-1.575 1.472-2.28 2.662-1.806 3.047-1.936 3.151-3.924 3.151-1.723 0-1.78.039-1.78 1.22 0 .993.223 1.304 1.197 1.668.659.246 1.197.63 1.196.854-.001.225-.473 2.72-1.051 5.546-.796 3.899-1.06 6.423-1.096 10.472-.044 5 .02 5.476 1.013 7.574.584 1.232 1.564 2.566 2.179 2.964 1.412.917 4.057.936 5.438.04 1.587-1.029 3.598-4.112 3.297-5.052-.381-1.187-1.247-.948-2.824.78-3.355 3.677-4.674 2.199-4.611-5.167.032-3.8 1.591-12.351 2.888-15.836.774-2.082.972-2.294 2.664-2.865 1.005-.339 2.418-.617 3.14-.617.889 0 1.445-.246 1.725-.764.77-1.423.496-1.607-2.393-1.607-3.324 0-3.616-.341-2.581-3.024.584-1.513.608-1.864.148-2.152-.739-.464-1.167-.436-2.345.153zm75.343 2.158c-.346.38-.688 1.303-.761 2.051-.12 1.248-.278 1.397-1.927 1.813-.988.25-2.36.744-3.05 1.099-2.989 1.536-6.126 8.123-6.436 13.512-.252 4.372.297 6.1 2.564 8.075 1.561 1.361 2.115 1.608 3.605 1.608 2.148 0 3.609-.708 5.228-2.533 2.719-3.066 4.682-7.582 5.9-13.572.574-2.823.913-3.709 1.487-3.889.408-.129.842-.135.964-.014.446.442 1.641-.557 2.047-1.711.495-1.405.119-1.748-1.323-1.206-.582.219-1.226.398-1.431.398-.678 0-1.97-1.566-1.97-2.387 0-.773-1.362-3.027-2.196-3.634-.708-.514-2.054-.32-2.701.39zm-64.829 4.347c-2.458 2.607-4.924 9.776-5.219 15.169-.186 3.406-.113 3.996.696 5.6.517 1.025 1.266 1.888 1.748 2.017 2.632.699 4.372-.249 7.294-3.974.997-1.272 2.02-2.313 2.273-2.313.299 0 .536 1.369.684 3.952.316 5.548 1.696 8.102 4.376 8.102 1.617 0 4.637-3.62 4.124-4.944-.337-.869-1.458-.572-1.939.515-.257.579-.682.86-1.193.788-1.139-.163-1.447-2.465-.965-7.227.553-5.474 1.295-8.461 3.73-15.017.565-1.522.942-2.989.838-3.261-.106-.277-.864-.494-1.724-.494-2.044 0-3.062 1.118-5.578 6.126-1.771 3.526-3.798 7.21-4.89 8.892-.212.326-1.132 1.801-2.045 3.278-2.091 3.384-2.978 3.463-2.873.256.079-2.442.983-6.066 3.087-12.378.788-2.364 1.433-4.72 1.433-5.236 0-.811-.192-.938-1.416-.938-1.031 0-1.696.296-2.441 1.087zm47.055.422c-1.962 1.684-4.076 10.179-4.076 16.377 0 4.547.49 6.221 1.822 6.221 1.285 0 1.584-.74 2.156-5.335.518-4.163 1.618-9.273 2.57-11.945.313-.877.695-2.593.849-3.815l.28-2.221h-1.382c-.763 0-1.757.321-2.219.718zm-14.967 2.09c2.108 1.01 2.118.954-1.181 6.676-5.115 8.875-6.945 11.341-7.793 10.501-.296-.293-.21-4.257.138-6.323.649-3.863 3.29-9.372 5.21-10.867 1.304-1.016 1.482-1.015 3.626.013zm34.705.254c.811 3.201-1.549 11.754-4.269 15.472-2.075 2.835-3.581 3.049-4.593.651-.748-1.773-.735-3.856.046-7.19 1.447-6.175 4.301-10.014 7.45-10.018.857-.001 1.149.231 1.366 1.085z" fill="#8C0335"/></svg>