<?xml version="1.0" encoding="UTF-8" standalone="no"?>
<!-- Created with Inkscape (http://www.inkscape.org/) -->

<svg
   width="73.636238mm"
   height="129.13339mm"
   viewBox="0 0 73.636238 129.13339"
   version="1.1"
   id="svg5"
   xml:space="preserve"
   inkscape:version="1.2.2 (732a01da63, 2022-12-09, custom)"
   sodipodi:docname="ballet-studio.svg"
   xmlns:inkscape="http://www.inkscape.org/namespaces/inkscape"
   xmlns:sodipodi="http://sodipodi.sourceforge.net/DTD/sodipodi-0.dtd"
   xmlns="http://www.w3.org/2000/svg"
   xmlns:svg="http://www.w3.org/2000/svg"><sodipodi:namedview
     id="namedview7"
     pagecolor="#ffffff"
     bordercolor="#000000"
     borderopacity="0.25"
     inkscape:showpageshadow="2"
     inkscape:pageopacity="0.0"
     inkscape:pagecheckerboard="0"
     inkscape:deskcolor="#d1d1d1"
     inkscape:document-units="mm"
     showgrid="false"
     inkscape:zoom="0.74653479"
     inkscape:cx="326.84344"
     inkscape:cy="205.61667"
     inkscape:window-width="1920"
     inkscape:window-height="1019"
     inkscape:window-x="0"
     inkscape:window-y="30"
     inkscape:window-maximized="1"
     inkscape:current-layer="layer1" /><defs
     id="defs2" /><g
     inkscape:label="Layer 1"
     inkscape:groupmode="layer"
     id="layer1"
     transform="translate(-16.552141,-88.954485)"><g
       style="fill:none"
       id="g1800"
       transform="matrix(0.40470261,0,0,0.40103539,16.552142,84.522131)"><path
         fill-rule="evenodd"
         clip-rule="evenodd"
         d="m 133.36,11.618416 c -4.928,1.066641 -11.909,4.721451 -14.882,7.790961 -3.322,3.4303 -5.503,8.2324 -5.503,12.1184 0,3.6157 3.154,6.7943 7.819,7.8799 5.94,1.3824 11.973,-0.4762 17.253,-5.3155 4.924,-4.5135 8.69,-10.302 9.138,-14.04771 0.468,-3.91604 -1.879,-7.25982 -5.933,-8.45174 -2.476,-0.727957 -4.44,-0.721633 -7.892,0.02569 z m -4.616,47.593861 c -19.233,1.5638 -40.878103,7.4875 -62.076703,16.9877 -27.2398,12.2081 -45.0471,24.194503 -58.9107398,39.654303 -4.75973,5.307 -7.7565599759589,10.16 -7.7565599759589,12.559 0,3.843 10.2527997759589,1.579 21.9151997759589,-4.839 3.2064,-1.765 7.2667,-4.204 9.0232,-5.42 6.4316,-4.453 8.0771,-5.506 12.7746,-8.1711 7.6216,-4.3243 15.1977,-8.0692 26.3475,-13.023403 5.7087,-2.5364 10.9183,-4.8527 11.577,-5.1467 3.8635,-1.725 18.546503,-7.4088 21.756503,-8.4217 2.086,-0.658 5.168,-1.4235 6.848,-1.7006 2.712,-0.4469 3.167,-0.4307 4.055,0.1447 3.008,1.9519 3.272,11.6529 1.067,39.210803 -0.832,10.384 -0.892,10.968 -1.598,15.448 l -0.442,2.803 -3.269,2.369 c -1.797,1.303 -5.741,4.096 -8.763,6.207 -5.393303,3.765 -12.180603,9.118 -13.573403,10.704 -0.9988,1.138 -1.8894,3.281 -1.8894,4.547 0,1.576 1.5389,3.57 3.5928,4.655 1.4898,0.787 2.2444,0.925 4.4208,0.811 2.8384,-0.15 6.312203,-1.619 14.402203,-6.092 4.29,-2.372 5.129,-2.573 5.129,-1.229 0,1.631 -1.22,10.7 -1.838,13.666 -1.286,6.163 -6.719,20.497 -8.212,21.664 -0.291,0.227 -3.402903,1.67 -6.915903,3.206 -7.1805,3.14 -19.5271,8.691 -24.3515,10.949 -4.4871,2.1 -8.2073,3.795 -15.569,7.094 -11.4209,5.116 -25.5671,13.009 -27.8765,15.552 -1.0683,1.177 -0.2887,2.303 2.4615,3.556 1.8962,0.864 3.0343,1.066 7.0515,1.253 5.7821,0.269 12.9834,-0.401 16.6792,-1.553 5.4935,-1.713 14.0265,-5.846 37.3114,-18.072 7.4463,-3.91 12.145303,-6.152 12.974303,-6.189 l 1.299,-0.058 0.126,2.173 c 0.07,1.196 -0.156,5.019 -0.501,8.497 -0.536,5.397 -1.734,21.029 -3.406,44.46 -0.225,3.152 -0.719,9.643 -1.097,14.425 -0.491,6.218 -0.688,13.196 -0.69,24.502 -0.003,15.178 0.033,15.934 0.892,18.97 1.865,6.587 5.655,9.125 10.303,6.898 2.146,-1.029 4.298,-4.097 5.113,-7.293 1.121,-4.39 1.396,-10.946 1.672,-39.916 0.198,-20.724 0.133,-32.522 -0.232,-41.891 -0.642,-16.515 -0.122,-23.089 2.455,-31.023 0.984,-3.031 3.485,-8.109 5.243,-10.647 2.436,-3.517 7.958,-8.509 14.717,-13.307 9.577,-6.797 18.203,-13.199 22.481,-16.683 4.864,-3.961 13.783,-12.463 13.783,-13.138 0,-0.169 0.45,-0.836 1,-1.483 0.55,-0.647 1.654,-2.484 2.453,-4.081 1.435,-2.871 1.447,-2.932 0.97,-5.225 -0.808,-3.889 -3.335,-6.936 -8.584,-10.349 -2.86,-1.86 -10.195,-5.459 -15.001,-7.359 -1.646,-0.651 -3.057,-1.245 -3.134,-1.321 -0.077,-0.075 0.3,-0.727 0.838,-1.447 2.258,-3.026 10.152,-18.5977 12.084,-23.8373 0.401,-1.0868 0.873,-2.1661 1.048,-2.398 0.854,-1.129103 1.933,-7.317203 1.936,-11.094103 0.007,-10.2973 -3.832,-19.4272 -10.28,-24.4462 -5.56,-4.3286 -11.363,-6.0671 -21.055,-6.309 -3.513,-0.0877 -8.363,0.0012 -10.778,0.1976 z m 19.341,21.9063 c 3.788,2.3672 7.214,10.0804 7.199,16.2075 -0.022,8.889603 -5.119,18.309203 -13.652,25.230203 -1.889,1.532 -9.105,5.005 -10.406,5.009 -1.095,0.003 -1.269,-1.047 -0.745,-4.516 0.265,-1.754 0.751,-5.323 1.082,-7.931 1.46,-11.5243 4,-24.403503 5.456,-27.664303 1.268,-2.8379 4.221,-6.4927 5.463,-6.7618 0.568,-0.1229 1.212,-0.2826 1.432,-0.3553 1.173,-0.3873 2.784,-0.0858 4.171,0.7817 z m -1.036,63.540703 c 4.221,2.213 8.306,7.04 9.594,11.335 0.84,2.799 0.815,3.355 -0.239,5.445 -1.547,3.067 -10.307,10.734 -15.48,13.549 -3.782,2.058 -9.556,4.307 -11.862,4.62 l -1.828,0.247 0.281,-1.543 c 0.438,-2.418 3.325,-12.258 4.684,-15.968 1.573,-4.295 5.05,-11.382 7.059,-14.391 1.434,-2.146 4.074,-4.579 4.97,-4.579 0.205,0 1.474,0.578 2.821,1.285 z"
         fill="#8c0335"
         id="path1791"
         sodipodi:nodetypes="ccscccsccccsccccccccccccccsscssccccccscccscccscccccccccccssccccccccccscccccsccccccccscccccsc" /></g></g></svg>
