<svg width="278.31" height="488.063" viewBox="0 0 73.636 129.133" xmlns="http://www.w3.org/2000/svg">
    <path fill-rule="evenodd" clip-rule="evenodd"
        d="M53.971.227c-1.994.428-4.82 1.894-6.023 3.124-1.344 1.376-2.227 3.302-2.227 4.86 0 1.45 1.277 2.725 3.165 3.16 2.404.555 4.845-.19 6.982-2.131 1.993-1.81 3.517-4.132 3.698-5.634.19-1.57-.76-2.911-2.4-3.39-1.003-.291-1.798-.289-3.195.011zm-1.868 19.087c-7.784.627-16.543 3.003-25.123 6.813-11.024 4.895-18.23 9.702-23.84 15.902C1.212 44.158 0 46.104 0 47.066c0 1.541 4.15.633 8.87-1.94 1.297-.709 2.94-1.687 3.65-2.174 2.604-1.786 3.27-2.208 5.17-3.277 3.085-1.734 6.151-3.236 10.664-5.223l4.685-2.064c1.563-.692 7.506-2.971 8.805-3.377.844-.264 2.091-.571 2.771-.682 1.098-.18 1.282-.173 1.641.058 1.218.782 1.324 4.673.432 15.724-.337 4.165-.36 4.399-.647 6.196l-.178 1.124-1.323.95c-.728.522-2.324 1.642-3.547 2.49-2.183 1.509-4.93 3.656-5.493 4.292-.404.456-.765 1.316-.765 1.823 0 .632.623 1.432 1.454 1.867.603.316.909.371 1.79.325 1.148-.06 2.554-.649 5.828-2.443 1.736-.951 2.076-1.032 2.076-.493 0 .654-.494 4.291-.744 5.48-.52 2.472-2.72 8.22-3.324 8.689-.117.09-1.377.67-2.798 1.286-2.906 1.259-7.903 3.485-9.856 4.39a386.035 386.035 0 01-6.3 2.846c-4.622 2.051-10.347 5.217-11.282 6.236-.432.472-.117.924.996 1.427.768.346 1.228.427 2.854.502 2.34.108 5.254-.16 6.75-.623 2.223-.687 5.677-2.344 15.1-7.247 3.014-1.568 4.915-2.467 5.25-2.482l.527-.024.05.872c.029.48-.063 2.013-.202 3.407-.217 2.165-.702 8.434-1.379 17.83a950.642 950.642 0 01-.444 5.785c-.198 2.494-.278 5.292-.279 9.827-.001 6.087.013 6.39.361 7.607.755 2.642 2.289 3.66 4.17 2.767.868-.413 1.74-1.643 2.069-2.925.454-1.76.565-4.39.677-16.008.08-8.311.053-13.042-.094-16.8-.26-6.623-.05-9.26.993-12.441.399-1.216 1.41-3.252 2.122-4.27.986-1.41 3.22-3.412 5.956-5.336 3.876-2.726 7.367-5.294 9.098-6.69 1.969-1.59 5.578-4.999 5.578-5.27 0-.067.182-.335.405-.594.223-.26.67-.997.993-1.637.58-1.151.585-1.176.392-2.095-.327-1.56-1.35-2.782-3.474-4.15-1.157-.747-4.126-2.19-6.07-2.952-.667-.261-1.238-.5-1.269-.53-.031-.03.121-.291.34-.58.913-1.214 4.108-7.458 4.89-9.56.162-.435.353-.868.424-.961.345-.453.782-2.935.783-4.45.003-4.129-1.55-7.79-4.16-9.803-2.25-1.736-4.599-2.433-8.521-2.53-1.422-.036-3.385 0-4.362.079zm7.827 8.785c1.533.95 2.92 4.043 2.914 6.5-.01 3.565-2.072 7.342-5.525 10.118-.765.614-3.685 2.007-4.211 2.009-.444.001-.514-.42-.302-1.811.107-.704.304-2.135.438-3.18.59-4.623 1.619-9.788 2.208-11.095.513-1.138 1.708-2.604 2.21-2.712.23-.05.491-.113.58-.142.475-.156 1.127-.035 1.688.313zm-.419 25.482c1.708.888 3.362 2.823 3.883 4.546.34 1.122.33 1.345-.097 2.184-.626 1.23-4.171 4.304-6.265 5.433-1.53.825-3.867 1.727-4.8 1.853l-.74.099.114-.619c.177-.97 1.345-4.916 1.895-6.404.637-1.722 2.044-4.564 2.857-5.77.58-.861 1.649-1.837 2.011-1.837.083 0 .597.232 1.142.515z"
        fill="#8c0335" />
</svg>