<svg width="478" height="322" viewBox="0 0 478 322" fill="none" xmlns="http://www.w3.org/2000/svg">
<path fill-rule="evenodd" clip-rule="evenodd" d="M133.36 0.566139C128.432 1.63278 121.451 5.28759 118.478 8.3571C115.156 11.7874 112.975 16.5895 112.975 20.4755C112.975 24.0912 116.129 27.2698 120.794 28.3554C126.734 29.7378 132.767 27.8792 138.047 23.0399C142.971 18.5264 146.737 12.7379 147.185 8.99219C147.653 5.07615 145.306 1.73237 141.252 0.54045C138.776 -0.187507 136.812 -0.181183 133.36 0.566139ZM128.744 48.16C109.511 49.7238 87.8659 55.6475 66.6673 65.1477C39.4275 77.3558 21.6202 89.3422 7.75656 104.802C2.99683 110.109 0 114.962 0 117.361C0 121.204 10.2528 118.94 21.9152 112.522C25.1216 110.757 29.1819 108.318 30.9384 107.102C37.37 102.649 39.0155 101.596 43.713 98.9309C51.3346 94.6066 58.9107 90.8617 70.0605 85.9075C75.7692 83.3711 80.9788 81.0548 81.6375 80.7608C85.501 79.0358 100.184 73.352 103.394 72.3391C105.48 71.6811 108.562 70.9156 110.242 70.6385C112.954 70.1916 113.409 70.2078 114.297 70.7832C117.305 72.7351 117.569 82.4361 115.364 109.994C114.532 120.378 114.472 120.962 113.766 125.442L113.324 128.245L110.055 130.614C108.258 131.917 104.314 134.71 101.292 136.821C95.8987 140.586 89.1114 145.939 87.7186 147.525C86.7198 148.663 85.8292 150.806 85.8292 152.072C85.8292 153.648 87.3681 155.642 89.422 156.727C90.9118 157.514 91.6664 157.652 93.8428 157.538C96.6812 157.388 100.155 155.919 108.245 151.446C112.535 149.074 113.374 148.873 113.374 150.217C113.374 151.848 112.154 160.917 111.536 163.883C110.25 170.046 104.817 184.38 103.324 185.547C103.033 185.774 99.9211 187.217 96.4081 188.753C89.2276 191.893 76.881 197.444 72.0566 199.702C67.5695 201.802 63.8493 203.497 56.4876 206.796C45.0667 211.912 30.9205 219.805 28.6111 222.348C27.5428 223.525 28.3224 224.651 31.0726 225.904C32.9688 226.768 34.1069 226.97 38.1241 227.157C43.9062 227.426 51.1075 226.756 54.8033 225.604C60.2968 223.891 68.8298 219.758 92.1147 207.532C99.561 203.622 104.26 201.38 105.089 201.343L106.388 201.285L106.514 203.458C106.584 204.654 106.358 208.477 106.013 211.955C105.477 217.352 104.279 232.984 102.607 256.415C102.382 259.567 101.888 266.058 101.51 270.84C101.019 277.058 100.822 284.036 100.82 295.342C100.817 310.52 100.853 311.276 101.712 314.312C103.577 320.899 107.367 323.437 112.015 321.21C114.161 320.181 116.313 317.113 117.128 313.917C118.249 309.527 118.524 302.971 118.8 274.001C118.998 253.277 118.933 241.479 118.568 232.11C117.926 215.595 118.446 209.021 121.023 201.087C122.007 198.056 124.508 192.978 126.266 190.44C128.702 186.923 134.224 181.931 140.983 177.133C150.56 170.336 159.186 163.934 163.464 160.45C168.328 156.489 177.247 147.987 177.247 147.312C177.247 147.143 177.697 146.476 178.247 145.829C178.797 145.182 179.901 143.345 180.7 141.748C182.135 138.877 182.147 138.816 181.67 136.523C180.862 132.634 178.335 129.587 173.086 126.174C170.226 124.314 162.891 120.715 158.085 118.815C156.439 118.164 155.028 117.57 154.951 117.494C154.874 117.419 155.251 116.767 155.789 116.047C158.047 113.021 165.941 97.4493 167.873 92.2097C168.274 91.1229 168.746 90.0436 168.921 89.8117C169.775 88.6826 170.854 82.4945 170.857 78.7176C170.864 68.4203 167.025 59.2904 160.577 54.2714C155.017 49.9428 149.214 48.2043 139.522 47.9624C136.009 47.8747 131.159 47.9636 128.744 48.16ZM148.085 70.0663C151.873 72.4335 155.299 80.1467 155.284 86.2738C155.262 95.1634 150.165 104.583 141.632 111.504C139.743 113.036 132.527 116.509 131.226 116.513C130.131 116.516 129.957 115.466 130.481 111.997C130.746 110.243 131.232 106.674 131.563 104.066C133.023 92.5417 135.563 79.6625 137.019 76.4017C138.287 73.5638 141.24 69.909 142.482 69.6399C143.05 69.517 143.694 69.3573 143.914 69.2846C145.087 68.8973 146.698 69.1988 148.085 70.0663ZM265.919 81.3817C262.256 82.4795 259.488 85.3637 256.509 91.1834C252.665 98.6938 248.632 114.556 246.905 128.963C246.56 131.844 246.122 140.697 245.907 149.118C245.697 157.378 245.329 165.292 245.091 166.705C244.141 172.323 238.801 180.735 234.635 183.179C229.649 186.102 228.058 185.738 226.792 181.383C225.492 176.908 225.124 171.773 225.016 156.619C224.959 148.572 224.782 141.779 224.623 141.523C224.187 140.826 213.736 141.361 207.827 142.383C202.305 143.339 200.941 143.728 196.863 145.519C185.566 150.477 178.614 157.952 174.033 170.064C172.783 173.371 170.429 183.992 170.184 187.437C169.6 195.616 173.686 203.758 179.907 206.812C181.87 207.775 182.74 207.959 185.431 207.979C192.12 208.029 197.838 205.142 204.556 198.322C206.912 195.93 209 193.974 209.197 193.974C209.394 193.974 209.767 194.374 210.027 194.863C211.077 196.841 215.467 202.577 217.159 204.184C219.422 206.333 222.063 207.687 224.653 208.027C226.462 208.265 226.936 208.146 229.494 206.816C233.283 204.844 236.895 201.314 242.135 194.457C244.507 191.353 246.586 188.953 246.754 189.121C246.923 189.29 247.631 191.118 248.328 193.183C249.954 198.004 251.013 200.042 253.119 202.406C255.425 204.994 258.505 206.396 261.259 206.11C266.72 205.543 271.255 202.71 279.579 194.665C283.121 191.242 286.051 188.441 286.09 188.441C286.128 188.441 286.632 189.663 287.209 191.157C290.241 199.013 295.237 203.903 301.983 205.619C305.775 206.584 308.068 206.369 316.746 204.237C320.835 203.232 331.979 203.174 343.716 204.095C350.537 204.631 352.464 204.657 355.293 204.249C359.548 203.635 364.249 202.194 367.868 200.394C374.876 196.906 381.64 189.667 381.64 185.653C381.64 183.89 380.91 183.03 379.133 182.701C376.507 182.215 373.407 183.319 367.269 186.926C363.952 188.875 363.077 189.206 360.283 189.568C356.723 190.029 348.081 189.367 347.831 188.614C347.754 188.383 348.567 187.803 349.636 187.324C354.496 185.149 364.635 178.282 369.095 174.144C371.532 171.882 375.548 166.61 376.687 164.178C377.202 163.077 377.935 160.866 378.317 159.264C378.975 156.5 378.975 156.217 378.32 153.743C375.668 143.733 369.095 139.285 358.91 140.604C355.063 141.102 349.601 142.821 345.794 144.73C341.625 146.821 334.858 151.561 332.794 153.834C330.365 156.51 325.922 164.608 324.341 169.242C323.269 172.385 321.881 177.945 320.594 184.258C319.933 187.499 319.197 190.345 318.959 190.581C318.72 190.817 317.14 191.005 315.443 191C312.612 190.991 312.213 190.885 310.573 189.714C307.936 187.833 307.075 186.331 306.551 182.698C306.076 179.41 306.244 171.235 306.979 161.765C307.198 158.939 307.66 152.982 308.005 148.526C308.351 144.07 308.898 137.845 309.22 134.694C309.542 131.542 309.91 126.296 310.037 123.035C310.238 117.912 310.153 116.551 309.41 113.01C307.756 105.118 305.331 102.278 299.733 101.678C298.025 101.495 297.358 101.606 296.335 102.243C293.471 104.027 290.427 113.504 288.64 126.197C287.941 131.167 285.817 152.761 285.05 162.705C284.731 166.839 284.38 168.938 283.761 170.411C282.576 173.229 279.166 177.3 273.319 182.873C269.13 186.866 268.081 187.242 266.655 185.259C264.421 182.153 263.667 173.895 264.028 156.486C264.374 139.818 264.408 139.586 271.225 108.096C273.9 95.7389 274.572 88.7442 273.443 85.0135C272.456 81.7519 269.478 80.3142 265.919 81.3817ZM414.974 98.9807C398.876 100.149 383.798 103.308 362.079 110.061C355.696 112.046 345.249 116.134 341.52 118.105C331.129 123.599 323.635 129.489 321.32 133.982C320.648 135.286 320.589 135.751 320.956 136.853C321.486 138.441 322.376 138.734 325.113 138.221C330.554 137.202 333.135 136.261 349.704 129.254C363.763 123.308 367.493 122.209 372.463 122.546C376.058 122.791 379.796 124.241 381.388 126.011C384.462 129.426 384.577 130.395 385.204 158.01C385.438 168.335 385.721 177.974 385.832 179.429C386.399 186.868 388.966 192.348 394.187 197.262C397.649 200.52 403.066 202.668 407.823 202.668C412.592 202.668 420.873 199.851 428.838 195.518C431.313 194.172 434.146 192.637 435.134 192.106C445.14 186.731 451.497 182.882 453.282 181.117C457.395 177.052 457.929 171.634 454.576 167.989C453.642 166.975 450.906 166.782 448.108 167.533C446.392 167.994 441.17 170.519 436.332 173.227C418.367 183.283 414.639 184.814 411.366 183.478C409.113 182.558 408.095 181.498 406.54 178.451C404.667 174.782 403.378 169.74 402.332 161.987C401.575 156.381 401.445 153.54 401.425 142.202C401.395 125.296 401.707 123.751 405.678 121.164C411.41 117.428 420.893 116.011 444.715 115.33C459.071 114.919 463.565 114.39 470.087 112.342C475.467 110.653 478.501 107.729 477.932 104.781C477.514 102.616 472.954 100.948 463.959 99.6715C460.13 99.1281 455.465 98.9925 438.128 98.9222C426.491 98.8748 416.072 98.9012 414.974 98.9807ZM147.049 133.607C151.27 135.82 155.355 140.647 156.643 144.942C157.483 147.741 157.458 148.297 156.404 150.387C154.857 153.454 146.097 161.121 140.924 163.936C137.142 165.994 131.368 168.243 129.062 168.556L127.234 168.803L127.515 167.26C127.953 164.842 130.84 155.002 132.199 151.292C133.772 146.997 137.249 139.91 139.258 136.901C140.692 134.755 143.332 132.322 144.228 132.322C144.433 132.322 145.702 132.9 147.049 133.607ZM359.295 156.83C362.454 158.425 362.86 161.025 360.632 165.384C358.97 168.637 356.622 171.013 351.994 174.128C345.486 178.507 339.021 181.327 335.49 181.327C334.378 181.327 334.135 181.178 334.135 180.495C334.135 179.735 335.368 175.347 336.764 171.145C339.212 163.769 344.301 158.966 352.498 156.292C354.08 155.776 357.79 156.07 359.295 156.83ZM204.769 159.509C206.205 160.565 207.846 163.048 208.407 165.017C208.984 167.039 208.519 169.243 206.786 172.7C205.067 176.131 200.454 181.449 196.562 184.489C196.145 184.815 194.753 185.964 193.469 187.043C191.244 188.912 191.107 188.969 190.578 188.252C190.272 187.838 190.022 187.089 190.022 186.587C190.022 186.085 189.732 184.03 189.376 182.019C188.922 179.442 188.793 177.077 188.94 174.006C189.36 165.247 191.707 161.11 197.399 159.094C199.862 158.222 203.278 158.414 204.769 159.509ZM352.698 212.956C345.072 214.493 339.464 222.401 341.902 228.179C342.222 228.937 344.337 231.376 346.603 233.6C351.658 238.562 352.299 239.728 352.299 243.966C352.299 246.688 352.134 247.45 351.114 249.442C348.887 253.794 345.137 256.02 340.032 256.02C338.079 256.02 337.529 255.859 336.712 255.05C334.755 253.113 335.584 249.829 338.78 246.855C339.981 245.738 343.078 244.187 344.139 244.173C344.481 244.168 345.109 243.911 345.536 243.603C346.295 243.053 346.291 243.021 345.343 242.022C343.454 240.032 338.679 241.12 334.98 244.383C333.202 245.951 331.631 249.439 331.608 251.866C331.573 255.612 333.598 257.763 337.789 258.431C343.247 259.302 348.728 257.661 352.724 253.962C356.075 250.858 357.649 247.686 357.753 243.823C357.861 239.835 356.653 237.646 351.492 232.487C346.08 227.078 345.615 225.673 347.803 221.336C348.766 219.427 350.948 217.712 353.433 216.91C355.578 216.217 355.967 216.697 355.363 219.287C355.105 220.396 354.894 222.449 354.894 223.85C354.894 226.165 354.982 226.437 355.866 226.836C357.231 227.451 357.978 227.047 357.922 225.723C357.865 224.369 359.236 220.113 360.493 217.743C361.207 216.394 361.324 215.795 361.032 214.976C360.687 214.013 360.509 213.942 358.739 214.068C357.15 214.182 356.719 214.064 356.233 213.377C355.609 212.495 355.218 212.448 352.698 212.956ZM422.123 213.613C420.838 214.985 418.39 220.122 416.979 224.404C416.371 226.251 415.718 227.93 415.529 228.133C415.32 228.357 414.818 228.163 414.255 227.639C411.98 225.524 406.314 227.23 403.728 230.81C399.88 236.135 397.887 243.7 399.261 247.761C400.235 250.64 402.754 251.942 405.045 250.752C406.461 250.017 408.659 247.735 410.345 245.251C412.173 242.558 412.778 242.747 412.778 246.009C412.778 249.117 413.469 253.437 414.189 254.843C414.47 255.39 415.209 256.342 415.831 256.958C416.863 257.979 417.162 258.063 419.246 257.914C421.762 257.733 422.654 257.163 424.208 254.743C426.134 251.742 424.688 251.059 421.877 253.644C419.063 256.232 418.216 255.762 417.556 251.247C417.117 248.247 417.265 244.771 418.026 240.212C419.42 231.862 419.638 231.048 423.751 218.871C425.309 214.258 425.451 213.141 424.522 212.788C423.479 212.392 423.165 212.5 422.123 213.613ZM431.541 217.583C430.58 217.953 430 218.951 429.724 220.709C429.312 223.331 430.271 224.926 431.763 224.099C432.515 223.682 434.332 220.067 434.334 218.984C434.336 217.739 432.947 217.042 431.541 217.583ZM370.463 221.357C369.914 221.632 368.888 222.829 368.183 224.019C366.377 227.066 366.247 227.17 364.259 227.17C362.536 227.17 362.479 227.209 362.479 228.39C362.479 229.383 362.702 229.694 363.676 230.058C364.335 230.304 364.873 230.688 364.872 230.912C364.871 231.137 364.399 233.632 363.821 236.458C363.025 240.357 362.761 242.881 362.725 246.93C362.681 251.93 362.745 252.406 363.738 254.504C364.322 255.736 365.302 257.07 365.917 257.468C367.329 258.385 369.974 258.404 371.355 257.508C372.942 256.479 374.953 253.396 374.652 252.456C374.271 251.269 373.405 251.508 371.828 253.236C368.473 256.913 367.154 255.435 367.217 248.069C367.249 244.269 368.808 235.718 370.105 232.233C370.879 230.151 371.077 229.939 372.769 229.368C373.774 229.029 375.187 228.751 375.909 228.751C376.798 228.751 377.354 228.505 377.634 227.987C378.404 226.564 378.13 226.38 375.241 226.38C371.917 226.38 371.625 226.039 372.66 223.356C373.244 221.843 373.268 221.492 372.808 221.204C372.069 220.74 371.641 220.768 370.463 221.357ZM445.806 223.515C445.46 223.895 445.118 224.818 445.045 225.566C444.925 226.814 444.767 226.963 443.118 227.379C442.13 227.629 440.758 228.123 440.068 228.478C437.079 230.014 433.942 236.601 433.632 241.99C433.38 246.362 433.929 248.09 436.196 250.065C437.757 251.426 438.311 251.673 439.801 251.673C441.949 251.673 443.41 250.965 445.029 249.14C447.748 246.074 449.711 241.558 450.929 235.568C451.503 232.745 451.842 231.859 452.416 231.679C452.824 231.55 453.258 231.544 453.38 231.665C453.826 232.107 455.021 231.108 455.427 229.954C455.922 228.549 455.546 228.206 454.104 228.748C453.522 228.967 452.878 229.146 452.673 229.146C451.995 229.146 450.703 227.58 450.703 226.759C450.703 225.986 449.341 223.732 448.507 223.125C447.799 222.611 446.453 222.805 445.806 223.515ZM380.977 227.862C378.519 230.469 376.053 237.638 375.758 243.031C375.572 246.437 375.645 247.027 376.454 248.631C376.971 249.656 377.72 250.519 378.202 250.648C380.834 251.347 382.574 250.399 385.496 246.674C386.493 245.402 387.516 244.361 387.769 244.361C388.068 244.361 388.305 245.73 388.453 248.313C388.769 253.861 390.149 256.415 392.829 256.415C394.446 256.415 397.466 252.795 396.953 251.471C396.616 250.602 395.495 250.899 395.014 251.986C394.757 252.565 394.332 252.846 393.821 252.774C392.682 252.611 392.374 250.309 392.856 245.547C393.409 240.073 394.151 237.086 396.586 230.53C397.151 229.008 397.528 227.541 397.424 227.269C397.318 226.992 396.56 226.775 395.7 226.775C393.656 226.775 392.638 227.893 390.122 232.901C388.351 236.427 386.324 240.111 385.232 241.793C385.02 242.119 384.1 243.594 383.187 245.071C381.096 248.455 380.209 248.534 380.314 245.327C380.393 242.885 381.297 239.261 383.401 232.949C384.189 230.585 384.834 228.229 384.834 227.713C384.834 226.902 384.642 226.775 383.418 226.775C382.387 226.775 381.722 227.071 380.977 227.862ZM428.032 228.284C426.07 229.968 423.956 238.463 423.956 244.661C423.956 249.208 424.446 250.882 425.778 250.882C427.063 250.882 427.362 250.142 427.934 245.547C428.452 241.384 429.552 236.274 430.504 233.602C430.817 232.725 431.199 231.009 431.353 229.787L431.633 227.566H430.251C429.488 227.566 428.494 227.887 428.032 228.284ZM413.065 230.374C415.173 231.384 415.183 231.328 411.884 237.05C406.769 245.925 404.939 248.391 404.091 247.551C403.795 247.258 403.881 243.294 404.229 241.228C404.878 237.365 407.519 231.856 409.439 230.361C410.743 229.345 410.921 229.346 413.065 230.374ZM447.77 230.628C448.581 233.829 446.221 242.382 443.501 246.1C441.426 248.935 439.92 249.149 438.908 246.751C438.16 244.978 438.173 242.895 438.954 239.561C440.401 233.386 443.255 229.547 446.404 229.543C447.261 229.542 447.553 229.774 447.77 230.628Z" fill="#8C0335"/>
</svg>
